<svg width="56" height="56" viewBox="0 0 56 56" fill="none" xmlns="http://www.w3.org/2000/svg">
<g clip-path="url(#clip0_1252_19818)">
<path d="M28 56C43.464 56 56 43.464 56 28C56 12.536 43.464 0 28 0C12.536 0 0 12.536 0 28C0 43.464 12.536 56 28 56Z" fill="white"/>
<g clip-path="url(#clip1_1252_19818)">
<path d="M37.794 48H20.8768C19.6545 48 18.9355 46.9464 18.9355 46.0256C18.9355 45.4808 19.1644 44.9872 19.5351 44.6296L26.9178 37.5072L37.794 48Z" fill="#FF4F12"/>
<path d="M20.8776 48C19.5997 48 18.0034 47.0144 18.0034 45.0552V23.1136C18.0034 20.1488 17.8467 18.0632 20.0417 15.9456L28.2768 8L42.8805 22.1112L19.5359 44.6296C19.1652 44.9872 18.9363 45.48 18.9363 46.0256C18.9363 46.9464 19.6553 48 20.8776 48Z" fill="#7700FF"/>
</g>
</g>
<defs>
<clipPath id="clip0_1252_19818">
<rect width="56" height="56" fill="white"/>
</clipPath>
<clipPath id="clip1_1252_19818">
<rect width="25" height="40" fill="white" transform="translate(18 8)"/>
</clipPath>
</defs>
</svg>
