<svg width="170" height="170" viewBox="0 0 170 170" fill="none" xmlns="http://www.w3.org/2000/svg">
<path d="M170 0H0V170H170V0Z" fill="white"/>
<path d="M12.5925 6.29639H6.2962V12.5927H12.5925V6.29639Z" fill="black"/>
<path d="M18.8889 6.29639H12.5927V12.5927H18.8889V6.29639Z" fill="black"/>
<path d="M25.1852 6.29639H18.8889V12.5927H25.1852V6.29639Z" fill="black"/>
<path d="M31.4817 6.29639H25.1854V12.5927H31.4817V6.29639Z" fill="black"/>
<path d="M37.7776 6.29639H31.4813V12.5927H37.7776V6.29639Z" fill="black"/>
<path d="M44.0741 6.29639H37.7778V12.5927H44.0741V6.29639Z" fill="black"/>
<path d="M50.3703 6.29639H44.074V12.5927H50.3703V6.29639Z" fill="black"/>
<path d="M69.2589 6.29639H62.9626V12.5927H69.2589V6.29639Z" fill="black"/>
<path d="M75.5554 6.29639H69.2591V12.5927H75.5554V6.29639Z" fill="black"/>
<path d="M81.8518 6.29639H75.5555V12.5927H81.8518V6.29639Z" fill="black"/>
<path d="M100.741 6.29639H94.4445V12.5927H100.741V6.29639Z" fill="black"/>
<path d="M113.334 6.29639H107.037V12.5927H113.334V6.29639Z" fill="black"/>
<path d="M125.926 6.29639H119.63V12.5927H125.926V6.29639Z" fill="black"/>
<path d="M132.222 6.29639H125.926V12.5927H132.222V6.29639Z" fill="black"/>
<path d="M138.519 6.29639H132.222V12.5927H138.519V6.29639Z" fill="black"/>
<path d="M144.815 6.29639H138.519V12.5927H144.815V6.29639Z" fill="black"/>
<path d="M151.111 6.29639H144.815V12.5927H151.111V6.29639Z" fill="black"/>
<path d="M157.407 6.29639H151.111V12.5927H157.407V6.29639Z" fill="black"/>
<path d="M163.704 6.29639H157.407V12.5927H163.704V6.29639Z" fill="black"/>
<path d="M12.5925 12.5925H6.2962V18.8888H12.5925V12.5925Z" fill="black"/>
<path d="M50.3703 12.5925H44.074V18.8888H50.3703V12.5925Z" fill="black"/>
<path d="M81.8518 12.5925H75.5555V18.8888H81.8518V12.5925Z" fill="black"/>
<path d="M88.148 12.5925H81.8517V18.8888H88.148V12.5925Z" fill="black"/>
<path d="M94.4446 12.5925H88.1483V18.8888H94.4446V12.5925Z" fill="black"/>
<path d="M100.741 12.5925H94.4445V18.8888H100.741V12.5925Z" fill="black"/>
<path d="M113.334 12.5925H107.037V18.8888H113.334V12.5925Z" fill="black"/>
<path d="M125.926 12.5925H119.63V18.8888H125.926V12.5925Z" fill="black"/>
<path d="M163.704 12.5925H157.407V18.8888H163.704V12.5925Z" fill="black"/>
<path d="M12.5925 18.8889H6.2962V25.1852H12.5925V18.8889Z" fill="black"/>
<path d="M25.1852 18.8889H18.8889V25.1852H25.1852V18.8889Z" fill="black"/>
<path d="M31.4817 18.8889H25.1854V25.1852H31.4817V18.8889Z" fill="black"/>
<path d="M37.7776 18.8889H31.4813V25.1852H37.7776V18.8889Z" fill="black"/>
<path d="M50.3703 18.8889H44.074V25.1852H50.3703V18.8889Z" fill="black"/>
<path d="M69.2589 18.8889H62.9626V25.1852H69.2589V18.8889Z" fill="black"/>
<path d="M75.5554 18.8889H69.2591V25.1852H75.5554V18.8889Z" fill="black"/>
<path d="M81.8518 18.8889H75.5555V25.1852H81.8518V18.8889Z" fill="black"/>
<path d="M100.741 18.8889H94.4445V25.1852H100.741V18.8889Z" fill="black"/>
<path d="M113.334 18.8889H107.037V25.1852H113.334V18.8889Z" fill="black"/>
<path d="M125.926 18.8889H119.63V25.1852H125.926V18.8889Z" fill="black"/>
<path d="M138.519 18.8889H132.222V25.1852H138.519V18.8889Z" fill="black"/>
<path d="M144.815 18.8889H138.519V25.1852H144.815V18.8889Z" fill="black"/>
<path d="M151.111 18.8889H144.815V25.1852H151.111V18.8889Z" fill="black"/>
<path d="M163.704 18.8889H157.407V25.1852H163.704V18.8889Z" fill="black"/>
<path d="M12.5925 25.1851H6.2962V31.4814H12.5925V25.1851Z" fill="black"/>
<path d="M25.1852 25.1851H18.8889V31.4814H25.1852V25.1851Z" fill="black"/>
<path d="M31.4817 25.1851H25.1854V31.4814H31.4817V25.1851Z" fill="black"/>
<path d="M37.7776 25.1851H31.4813V31.4814H37.7776V25.1851Z" fill="black"/>
<path d="M50.3703 25.1851H44.074V31.4814H50.3703V25.1851Z" fill="black"/>
<path d="M62.9632 25.1851H56.6669V31.4814H62.9632V25.1851Z" fill="black"/>
<path d="M75.5554 25.1851H69.2591V31.4814H75.5554V25.1851Z" fill="black"/>
<path d="M81.8518 25.1851H75.5555V31.4814H81.8518V25.1851Z" fill="black"/>
<path d="M94.4446 25.1851H88.1483V31.4814H94.4446V25.1851Z" fill="black"/>
<path d="M107.037 25.1851H100.741V31.4814H107.037V25.1851Z" fill="black"/>
<path d="M113.334 25.1851H107.037V31.4814H113.334V25.1851Z" fill="black"/>
<path d="M125.926 25.1851H119.63V31.4814H125.926V25.1851Z" fill="black"/>
<path d="M138.519 25.1851H132.222V31.4814H138.519V25.1851Z" fill="black"/>
<path d="M144.815 25.1851H138.519V31.4814H144.815V25.1851Z" fill="black"/>
<path d="M151.111 25.1851H144.815V31.4814H151.111V25.1851Z" fill="black"/>
<path d="M163.704 25.1851H157.407V31.4814H163.704V25.1851Z" fill="black"/>
<path d="M12.5925 31.4814H6.2962V37.7777H12.5925V31.4814Z" fill="black"/>
<path d="M25.1852 31.4814H18.8889V37.7777H25.1852V31.4814Z" fill="black"/>
<path d="M31.4817 31.4814H25.1854V37.7777H31.4817V31.4814Z" fill="black"/>
<path d="M37.7776 31.4814H31.4813V37.7777H37.7776V31.4814Z" fill="black"/>
<path d="M50.3703 31.4814H44.074V37.7777H50.3703V31.4814Z" fill="black"/>
<path d="M62.9632 31.4814H56.6669V37.7777H62.9632V31.4814Z" fill="black"/>
<path d="M75.5554 31.4814H69.2591V37.7777H75.5554V31.4814Z" fill="black"/>
<path d="M88.148 31.4814H81.8517V37.7777H88.148V31.4814Z" fill="black"/>
<path d="M94.4446 31.4814H88.1483V37.7777H94.4446V31.4814Z" fill="black"/>
<path d="M113.334 31.4814H107.037V37.7777H113.334V31.4814Z" fill="black"/>
<path d="M125.926 31.4814H119.63V37.7777H125.926V31.4814Z" fill="black"/>
<path d="M138.519 31.4814H132.222V37.7777H138.519V31.4814Z" fill="black"/>
<path d="M144.815 31.4814H138.519V37.7777H144.815V31.4814Z" fill="black"/>
<path d="M151.111 31.4814H144.815V37.7777H151.111V31.4814Z" fill="black"/>
<path d="M163.704 31.4814H157.407V37.7777H163.704V31.4814Z" fill="black"/>
<path d="M12.5925 37.7778H6.2962V44.0741H12.5925V37.7778Z" fill="black"/>
<path d="M50.3703 37.7778H44.074V44.0741H50.3703V37.7778Z" fill="black"/>
<path d="M69.2589 37.7778H62.9626V44.0741H69.2589V37.7778Z" fill="black"/>
<path d="M75.5554 37.7778H69.2591V44.0741H75.5554V37.7778Z" fill="black"/>
<path d="M94.4446 37.7778H88.1483V44.0741H94.4446V37.7778Z" fill="black"/>
<path d="M125.926 37.7778H119.63V44.0741H125.926V37.7778Z" fill="black"/>
<path d="M163.704 37.7778H157.407V44.0741H163.704V37.7778Z" fill="black"/>
<path d="M12.5925 44.074H6.2962V50.3703H12.5925V44.074Z" fill="black"/>
<path d="M18.8889 44.074H12.5927V50.3703H18.8889V44.074Z" fill="black"/>
<path d="M25.1852 44.074H18.8889V50.3703H25.1852V44.074Z" fill="black"/>
<path d="M31.4817 44.074H25.1854V50.3703H31.4817V44.074Z" fill="black"/>
<path d="M37.7776 44.074H31.4813V50.3703H37.7776V44.074Z" fill="black"/>
<path d="M44.0741 44.074H37.7778V50.3703H44.0741V44.074Z" fill="black"/>
<path d="M50.3703 44.074H44.074V50.3703H50.3703V44.074Z" fill="black"/>
<path d="M62.9632 44.074H56.6669V50.3703H62.9632V44.074Z" fill="black"/>
<path d="M75.5554 44.074H69.2591V50.3703H75.5554V44.074Z" fill="black"/>
<path d="M88.148 44.074H81.8517V50.3703H88.148V44.074Z" fill="black"/>
<path d="M100.741 44.074H94.4445V50.3703H100.741V44.074Z" fill="black"/>
<path d="M113.334 44.074H107.037V50.3703H113.334V44.074Z" fill="black"/>
<path d="M125.926 44.074H119.63V50.3703H125.926V44.074Z" fill="black"/>
<path d="M132.222 44.074H125.926V50.3703H132.222V44.074Z" fill="black"/>
<path d="M138.519 44.074H132.222V50.3703H138.519V44.074Z" fill="black"/>
<path d="M144.815 44.074H138.519V50.3703H144.815V44.074Z" fill="black"/>
<path d="M151.111 44.074H144.815V50.3703H151.111V44.074Z" fill="black"/>
<path d="M157.407 44.074H151.111V50.3703H157.407V44.074Z" fill="black"/>
<path d="M163.704 44.074H157.407V50.3703H163.704V44.074Z" fill="black"/>
<path d="M69.2589 50.3704H62.9626V56.6667H69.2589V50.3704Z" fill="black"/>
<path d="M88.148 50.3704H81.8517V56.6667H88.148V50.3704Z" fill="black"/>
<path d="M100.741 50.3704H94.4445V56.6667H100.741V50.3704Z" fill="black"/>
<path d="M113.334 50.3704H107.037V56.6667H113.334V50.3704Z" fill="black"/>
<path d="M12.5925 56.6667H6.2962V62.963H12.5925V56.6667Z" fill="black"/>
<path d="M18.8889 56.6667H12.5927V62.963H18.8889V56.6667Z" fill="black"/>
<path d="M44.0741 56.6667H37.7778V62.963H44.0741V56.6667Z" fill="black"/>
<path d="M50.3703 56.6667H44.074V62.963H50.3703V56.6667Z" fill="black"/>
<path d="M56.6668 56.6667H50.3705V62.963H56.6668V56.6667Z" fill="black"/>
<path d="M69.2589 56.6667H62.9626V62.963H69.2589V56.6667Z" fill="black"/>
<path d="M75.5554 56.6667H69.2591V62.963H75.5554V56.6667Z" fill="black"/>
<path d="M88.148 56.6667H81.8517V62.963H88.148V56.6667Z" fill="black"/>
<path d="M94.4446 56.6667H88.1483V62.963H94.4446V56.6667Z" fill="black"/>
<path d="M107.037 56.6667H100.741V62.963H107.037V56.6667Z" fill="black"/>
<path d="M113.334 56.6667H107.037V62.963H113.334V56.6667Z" fill="black"/>
<path d="M138.519 56.6667H132.222V62.963H138.519V56.6667Z" fill="black"/>
<path d="M144.815 56.6667H138.519V62.963H144.815V56.6667Z" fill="black"/>
<path d="M25.1852 62.9629H18.8889V69.2592H25.1852V62.9629Z" fill="black"/>
<path d="M31.4817 62.9629H25.1854V69.2592H31.4817V62.9629Z" fill="black"/>
<path d="M37.7776 62.9629H31.4813V69.2592H37.7776V62.9629Z" fill="black"/>
<path d="M56.6668 62.9629H50.3705V69.2592H56.6668V62.9629Z" fill="black"/>
<path d="M62.9632 62.9629H56.6669V69.2592H62.9632V62.9629Z" fill="black"/>
<path d="M75.5554 62.9629H69.2591V69.2592H75.5554V62.9629Z" fill="black"/>
<path d="M107.037 62.9629H100.741V69.2592H107.037V62.9629Z" fill="black"/>
<path d="M132.222 62.9629H125.926V69.2592H132.222V62.9629Z" fill="black"/>
<path d="M138.519 62.9629H132.222V69.2592H138.519V62.9629Z" fill="black"/>
<path d="M144.815 62.9629H138.519V69.2592H144.815V62.9629Z" fill="black"/>
<path d="M151.111 62.9629H144.815V69.2592H151.111V62.9629Z" fill="black"/>
<path d="M157.407 62.9629H151.111V69.2592H157.407V62.9629Z" fill="black"/>
<path d="M12.5925 69.2593H6.2962V75.5556H12.5925V69.2593Z" fill="black"/>
<path d="M37.7776 69.2593H31.4813V75.5556H37.7776V69.2593Z" fill="black"/>
<path d="M50.3703 69.2593H44.074V75.5556H50.3703V69.2593Z" fill="black"/>
<path d="M56.6668 69.2593H50.3705V75.5556H56.6668V69.2593Z" fill="black"/>
<path d="M69.2589 69.2593H62.9626V75.5556H69.2589V69.2593Z" fill="black"/>
<path d="M81.8518 69.2593H75.5555V75.5556H81.8518V69.2593Z" fill="black"/>
<path d="M88.148 69.2593H81.8517V75.5556H88.148V69.2593Z" fill="black"/>
<path d="M100.741 69.2593H94.4445V75.5556H100.741V69.2593Z" fill="black"/>
<path d="M107.037 69.2593H100.741V75.5556H107.037V69.2593Z" fill="black"/>
<path d="M119.629 69.2593H113.333V75.5556H119.629V69.2593Z" fill="black"/>
<path d="M125.926 69.2593H119.63V75.5556H125.926V69.2593Z" fill="black"/>
<path d="M138.519 69.2593H132.222V75.5556H138.519V69.2593Z" fill="black"/>
<path d="M144.815 69.2593H138.519V75.5556H144.815V69.2593Z" fill="black"/>
<path d="M157.407 69.2593H151.111V75.5556H157.407V69.2593Z" fill="black"/>
<path d="M163.704 69.2593H157.407V75.5556H163.704V69.2593Z" fill="black"/>
<path d="M18.8889 75.5557H12.5927V81.852H18.8889V75.5557Z" fill="black"/>
<path d="M37.7776 75.5557H31.4813V81.852H37.7776V75.5557Z" fill="black"/>
<path d="M75.5554 75.5557H69.2591V81.852H75.5554V75.5557Z" fill="black"/>
<path d="M81.8518 75.5557H75.5555V81.852H81.8518V75.5557Z" fill="black"/>
<path d="M107.037 75.5557H100.741V81.852H107.037V75.5557Z" fill="black"/>
<path d="M113.334 75.5557H107.037V81.852H113.334V75.5557Z" fill="black"/>
<path d="M119.629 75.5557H113.333V81.852H119.629V75.5557Z" fill="black"/>
<path d="M125.926 75.5557H119.63V81.852H125.926V75.5557Z" fill="black"/>
<path d="M132.222 75.5557H125.926V81.852H132.222V75.5557Z" fill="black"/>
<path d="M138.519 75.5557H132.222V81.852H138.519V75.5557Z" fill="black"/>
<path d="M144.815 75.5557H138.519V81.852H144.815V75.5557Z" fill="black"/>
<path d="M163.704 75.5557H157.407V81.852H163.704V75.5557Z" fill="black"/>
<path d="M12.5925 81.8518H6.2962V88.1481H12.5925V81.8518Z" fill="black"/>
<path d="M18.8889 81.8518H12.5927V88.1481H18.8889V81.8518Z" fill="black"/>
<path d="M25.1852 81.8518H18.8889V88.1481H25.1852V81.8518Z" fill="black"/>
<path d="M31.4817 81.8518H25.1854V88.1481H31.4817V81.8518Z" fill="black"/>
<path d="M37.7776 81.8518H31.4813V88.1481H37.7776V81.8518Z" fill="black"/>
<path d="M44.0741 81.8518H37.7778V88.1481H44.0741V81.8518Z" fill="black"/>
<path d="M50.3703 81.8518H44.074V88.1481H50.3703V81.8518Z" fill="black"/>
<path d="M56.6668 81.8518H50.3705V88.1481H56.6668V81.8518Z" fill="black"/>
<path d="M69.2589 81.8518H62.9626V88.1481H69.2589V81.8518Z" fill="black"/>
<path d="M75.5554 81.8518H69.2591V88.1481H75.5554V81.8518Z" fill="black"/>
<path d="M113.334 81.8518H107.037V88.1481H113.334V81.8518Z" fill="black"/>
<path d="M125.926 81.8518H119.63V88.1481H125.926V81.8518Z" fill="black"/>
<path d="M132.222 81.8518H125.926V88.1481H132.222V81.8518Z" fill="black"/>
<path d="M163.704 81.8518H157.407V88.1481H163.704V81.8518Z" fill="black"/>
<path d="M12.5925 88.1482H6.2962V94.4445H12.5925V88.1482Z" fill="black"/>
<path d="M18.8889 88.1482H12.5927V94.4445H18.8889V88.1482Z" fill="black"/>
<path d="M56.6668 88.1482H50.3705V94.4445H56.6668V88.1482Z" fill="black"/>
<path d="M69.2589 88.1482H62.9626V94.4445H69.2589V88.1482Z" fill="black"/>
<path d="M75.5554 88.1482H69.2591V94.4445H75.5554V88.1482Z" fill="black"/>
<path d="M88.148 88.1482H81.8517V94.4445H88.148V88.1482Z" fill="black"/>
<path d="M94.4446 88.1482H88.1483V94.4445H94.4446V88.1482Z" fill="black"/>
<path d="M100.741 88.1482H94.4445V94.4445H100.741V88.1482Z" fill="black"/>
<path d="M107.037 88.1482H100.741V94.4445H107.037V88.1482Z" fill="black"/>
<path d="M132.222 88.1482H125.926V94.4445H132.222V88.1482Z" fill="black"/>
<path d="M157.407 88.1482H151.111V94.4445H157.407V88.1482Z" fill="black"/>
<path d="M12.5925 94.4443H6.2962V100.741H12.5925V94.4443Z" fill="black"/>
<path d="M25.1852 94.4443H18.8889V100.741H25.1852V94.4443Z" fill="black"/>
<path d="M31.4817 94.4443H25.1854V100.741H31.4817V94.4443Z" fill="black"/>
<path d="M44.0741 94.4443H37.7778V100.741H44.0741V94.4443Z" fill="black"/>
<path d="M50.3703 94.4443H44.074V100.741H50.3703V94.4443Z" fill="black"/>
<path d="M107.037 94.4443H100.741V100.741H107.037V94.4443Z" fill="black"/>
<path d="M113.334 94.4443H107.037V100.741H113.334V94.4443Z" fill="black"/>
<path d="M119.629 94.4443H113.333V100.741H119.629V94.4443Z" fill="black"/>
<path d="M132.222 94.4443H125.926V100.741H132.222V94.4443Z" fill="black"/>
<path d="M138.519 94.4443H132.222V100.741H138.519V94.4443Z" fill="black"/>
<path d="M144.815 94.4443H138.519V100.741H144.815V94.4443Z" fill="black"/>
<path d="M157.407 94.4443H151.111V100.741H157.407V94.4443Z" fill="black"/>
<path d="M163.704 94.4443H157.407V100.741H163.704V94.4443Z" fill="black"/>
<path d="M12.5925 100.741H6.2962V107.037H12.5925V100.741Z" fill="black"/>
<path d="M31.4817 100.741H25.1854V107.037H31.4817V100.741Z" fill="black"/>
<path d="M37.7776 100.741H31.4813V107.037H37.7776V100.741Z" fill="black"/>
<path d="M69.2589 100.741H62.9626V107.037H69.2589V100.741Z" fill="black"/>
<path d="M75.5554 100.741H69.2591V107.037H75.5554V100.741Z" fill="black"/>
<path d="M88.148 100.741H81.8517V107.037H88.148V100.741Z" fill="black"/>
<path d="M107.037 100.741H100.741V107.037H107.037V100.741Z" fill="black"/>
<path d="M113.334 100.741H107.037V107.037H113.334V100.741Z" fill="black"/>
<path d="M125.926 100.741H119.63V107.037H125.926V100.741Z" fill="black"/>
<path d="M132.222 100.741H125.926V107.037H132.222V100.741Z" fill="black"/>
<path d="M151.111 100.741H144.815V107.037H151.111V100.741Z" fill="black"/>
<path d="M163.704 100.741H157.407V107.037H163.704V100.741Z" fill="black"/>
<path d="M12.5925 107.037H6.2962V113.333H12.5925V107.037Z" fill="black"/>
<path d="M31.4817 107.037H25.1854V113.333H31.4817V107.037Z" fill="black"/>
<path d="M37.7776 107.037H31.4813V113.333H37.7776V107.037Z" fill="black"/>
<path d="M44.0741 107.037H37.7778V113.333H44.0741V107.037Z" fill="black"/>
<path d="M50.3703 107.037H44.074V113.333H50.3703V107.037Z" fill="black"/>
<path d="M56.6668 107.037H50.3705V113.333H56.6668V107.037Z" fill="black"/>
<path d="M62.9632 107.037H56.6669V113.333H62.9632V107.037Z" fill="black"/>
<path d="M75.5554 107.037H69.2591V113.333H75.5554V107.037Z" fill="black"/>
<path d="M88.148 107.037H81.8517V113.333H88.148V107.037Z" fill="black"/>
<path d="M94.4446 107.037H88.1483V113.333H94.4446V107.037Z" fill="black"/>
<path d="M100.741 107.037H94.4445V113.333H100.741V107.037Z" fill="black"/>
<path d="M113.334 107.037H107.037V113.333H113.334V107.037Z" fill="black"/>
<path d="M119.629 107.037H113.333V113.333H119.629V107.037Z" fill="black"/>
<path d="M125.926 107.037H119.63V113.333H125.926V107.037Z" fill="black"/>
<path d="M132.222 107.037H125.926V113.333H132.222V107.037Z" fill="black"/>
<path d="M138.519 107.037H132.222V113.333H138.519V107.037Z" fill="black"/>
<path d="M151.111 107.037H144.815V113.333H151.111V107.037Z" fill="black"/>
<path d="M62.9632 113.333H56.6669V119.63H62.9632V113.333Z" fill="black"/>
<path d="M69.2589 113.333H62.9626V119.63H69.2589V113.333Z" fill="black"/>
<path d="M75.5554 113.333H69.2591V119.63H75.5554V113.333Z" fill="black"/>
<path d="M113.334 113.333H107.037V119.63H113.334V113.333Z" fill="black"/>
<path d="M138.519 113.333H132.222V119.63H138.519V113.333Z" fill="black"/>
<path d="M151.111 113.333H144.815V119.63H151.111V113.333Z" fill="black"/>
<path d="M12.5925 119.63H6.2962V125.926H12.5925V119.63Z" fill="black"/>
<path d="M18.8889 119.63H12.5927V125.926H18.8889V119.63Z" fill="black"/>
<path d="M25.1852 119.63H18.8889V125.926H25.1852V119.63Z" fill="black"/>
<path d="M31.4817 119.63H25.1854V125.926H31.4817V119.63Z" fill="black"/>
<path d="M37.7776 119.63H31.4813V125.926H37.7776V119.63Z" fill="black"/>
<path d="M44.0741 119.63H37.7778V125.926H44.0741V119.63Z" fill="black"/>
<path d="M50.3703 119.63H44.074V125.926H50.3703V119.63Z" fill="black"/>
<path d="M62.9632 119.63H56.6669V125.926H62.9632V119.63Z" fill="black"/>
<path d="M69.2589 119.63H62.9626V125.926H69.2589V119.63Z" fill="black"/>
<path d="M75.5554 119.63H69.2591V125.926H75.5554V119.63Z" fill="black"/>
<path d="M88.148 119.63H81.8517V125.926H88.148V119.63Z" fill="black"/>
<path d="M113.334 119.63H107.037V125.926H113.334V119.63Z" fill="black"/>
<path d="M125.926 119.63H119.63V125.926H125.926V119.63Z" fill="black"/>
<path d="M138.519 119.63H132.222V125.926H138.519V119.63Z" fill="black"/>
<path d="M144.815 119.63H138.519V125.926H144.815V119.63Z" fill="black"/>
<path d="M163.704 119.63H157.407V125.926H163.704V119.63Z" fill="black"/>
<path d="M12.5925 125.926H6.2962V132.222H12.5925V125.926Z" fill="black"/>
<path d="M50.3703 125.926H44.074V132.222H50.3703V125.926Z" fill="black"/>
<path d="M62.9632 125.926H56.6669V132.222H62.9632V125.926Z" fill="black"/>
<path d="M75.5554 125.926H69.2591V132.222H75.5554V125.926Z" fill="black"/>
<path d="M81.8518 125.926H75.5555V132.222H81.8518V125.926Z" fill="black"/>
<path d="M107.037 125.926H100.741V132.222H107.037V125.926Z" fill="black"/>
<path d="M113.334 125.926H107.037V132.222H113.334V125.926Z" fill="black"/>
<path d="M138.519 125.926H132.222V132.222H138.519V125.926Z" fill="black"/>
<path d="M163.704 125.926H157.407V132.222H163.704V125.926Z" fill="black"/>
<path d="M12.5925 132.222H6.2962V138.518H12.5925V132.222Z" fill="black"/>
<path d="M25.1852 132.222H18.8889V138.518H25.1852V132.222Z" fill="black"/>
<path d="M31.4817 132.222H25.1854V138.518H31.4817V132.222Z" fill="black"/>
<path d="M37.7776 132.222H31.4813V138.518H37.7776V132.222Z" fill="black"/>
<path d="M50.3703 132.222H44.074V138.518H50.3703V132.222Z" fill="black"/>
<path d="M69.2589 132.222H62.9626V138.518H69.2589V132.222Z" fill="black"/>
<path d="M81.8518 132.222H75.5555V138.518H81.8518V132.222Z" fill="black"/>
<path d="M88.148 132.222H81.8517V138.518H88.148V132.222Z" fill="black"/>
<path d="M94.4446 132.222H88.1483V138.518H94.4446V132.222Z" fill="black"/>
<path d="M100.741 132.222H94.4445V138.518H100.741V132.222Z" fill="black"/>
<path d="M107.037 132.222H100.741V138.518H107.037V132.222Z" fill="black"/>
<path d="M113.334 132.222H107.037V138.518H113.334V132.222Z" fill="black"/>
<path d="M119.629 132.222H113.333V138.518H119.629V132.222Z" fill="black"/>
<path d="M125.926 132.222H119.63V138.518H125.926V132.222Z" fill="black"/>
<path d="M132.222 132.222H125.926V138.518H132.222V132.222Z" fill="black"/>
<path d="M138.519 132.222H132.222V138.518H138.519V132.222Z" fill="black"/>
<path d="M144.815 132.222H138.519V138.518H144.815V132.222Z" fill="black"/>
<path d="M151.111 132.222H144.815V138.518H151.111V132.222Z" fill="black"/>
<path d="M12.5925 138.519H6.2962V144.815H12.5925V138.519Z" fill="black"/>
<path d="M25.1852 138.519H18.8889V144.815H25.1852V138.519Z" fill="black"/>
<path d="M31.4817 138.519H25.1854V144.815H31.4817V138.519Z" fill="black"/>
<path d="M37.7776 138.519H31.4813V144.815H37.7776V138.519Z" fill="black"/>
<path d="M50.3703 138.519H44.074V144.815H50.3703V138.519Z" fill="black"/>
<path d="M88.148 138.519H81.8517V144.815H88.148V138.519Z" fill="black"/>
<path d="M94.4446 138.519H88.1483V144.815H94.4446V138.519Z" fill="black"/>
<path d="M100.741 138.519H94.4445V144.815H100.741V138.519Z" fill="black"/>
<path d="M119.629 138.519H113.333V144.815H119.629V138.519Z" fill="black"/>
<path d="M125.926 138.519H119.63V144.815H125.926V138.519Z" fill="black"/>
<path d="M144.815 138.519H138.519V144.815H144.815V138.519Z" fill="black"/>
<path d="M157.407 138.519H151.111V144.815H157.407V138.519Z" fill="black"/>
<path d="M163.704 138.519H157.407V144.815H163.704V138.519Z" fill="black"/>
<path d="M12.5925 144.815H6.2962V151.111H12.5925V144.815Z" fill="black"/>
<path d="M25.1852 144.815H18.8889V151.111H25.1852V144.815Z" fill="black"/>
<path d="M31.4817 144.815H25.1854V151.111H31.4817V144.815Z" fill="black"/>
<path d="M37.7776 144.815H31.4813V151.111H37.7776V144.815Z" fill="black"/>
<path d="M50.3703 144.815H44.074V151.111H50.3703V144.815Z" fill="black"/>
<path d="M88.148 144.815H81.8517V151.111H88.148V144.815Z" fill="black"/>
<path d="M100.741 144.815H94.4445V151.111H100.741V144.815Z" fill="black"/>
<path d="M113.334 144.815H107.037V151.111H113.334V144.815Z" fill="black"/>
<path d="M132.222 144.815H125.926V151.111H132.222V144.815Z" fill="black"/>
<path d="M151.111 144.815H144.815V151.111H151.111V144.815Z" fill="black"/>
<path d="M163.704 144.815H157.407V151.111H163.704V144.815Z" fill="black"/>
<path d="M12.5925 151.111H6.2962V157.407H12.5925V151.111Z" fill="black"/>
<path d="M50.3703 151.111H44.074V157.407H50.3703V151.111Z" fill="black"/>
<path d="M62.9632 151.111H56.6669V157.407H62.9632V151.111Z" fill="black"/>
<path d="M69.2589 151.111H62.9626V157.407H69.2589V151.111Z" fill="black"/>
<path d="M88.148 151.111H81.8517V157.407H88.148V151.111Z" fill="black"/>
<path d="M100.741 151.111H94.4445V157.407H100.741V151.111Z" fill="black"/>
<path d="M113.334 151.111H107.037V157.407H113.334V151.111Z" fill="black"/>
<path d="M132.222 151.111H125.926V157.407H132.222V151.111Z" fill="black"/>
<path d="M138.519 151.111H132.222V157.407H138.519V151.111Z" fill="black"/>
<path d="M163.704 151.111H157.407V157.407H163.704V151.111Z" fill="black"/>
<path d="M12.5925 157.407H6.2962V163.704H12.5925V157.407Z" fill="black"/>
<path d="M18.8889 157.407H12.5927V163.704H18.8889V157.407Z" fill="black"/>
<path d="M25.1852 157.407H18.8889V163.704H25.1852V157.407Z" fill="black"/>
<path d="M31.4817 157.407H25.1854V163.704H31.4817V157.407Z" fill="black"/>
<path d="M37.7776 157.407H31.4813V163.704H37.7776V157.407Z" fill="black"/>
<path d="M44.0741 157.407H37.7778V163.704H44.0741V157.407Z" fill="black"/>
<path d="M50.3703 157.407H44.074V163.704H50.3703V157.407Z" fill="black"/>
<path d="M62.9632 157.407H56.6669V163.704H62.9632V157.407Z" fill="black"/>
<path d="M69.2589 157.407H62.9626V163.704H69.2589V157.407Z" fill="black"/>
<path d="M75.5554 157.407H69.2591V163.704H75.5554V157.407Z" fill="black"/>
<path d="M100.741 157.407H94.4445V163.704H100.741V157.407Z" fill="black"/>
<path d="M113.334 157.407H107.037V163.704H113.334V157.407Z" fill="black"/>
<path d="M125.926 157.407H119.63V163.704H125.926V157.407Z" fill="black"/>
<path d="M144.815 157.407H138.519V163.704H144.815V157.407Z" fill="black"/>
<path d="M163.704 157.407H157.407V163.704H163.704V157.407Z" fill="black"/>
</svg>
