<svg width="140" height="40" viewBox="0 0 140 40" fill="none" xmlns="http://www.w3.org/2000/svg">
<rect width="140" height="40" rx="4" fill="#101828"/>
<g clip-path="url(#clip0_1418_2891)">
<path d="M30.8095 18.6072C30.779 15.2559 33.5788 13.6254 33.7068 13.5495C32.1212 11.2588 29.6635 10.9458 28.7999 10.9209C26.7357 10.7056 24.7335 12.1447 23.682 12.1447C22.6096 12.1447 20.9903 10.9417 19.2452 10.977C16.9995 11.0113 14.8987 12.2997 13.7464 14.3003C11.3685 18.3795 13.142 24.374 15.4202 27.6713C16.5598 29.2861 17.8915 31.0892 19.6345 31.0257C21.3398 30.9561 21.9768 29.9485 24.0346 29.9485C26.0736 29.9485 26.6717 31.0257 28.4494 30.9852C30.2795 30.9561 31.4317 29.3631 32.5315 27.7337C33.8485 25.8828 34.3774 24.06 34.3984 23.9664C34.3553 23.9519 30.8441 22.624 30.8095 18.6072Z" fill="white"/>
<path d="M27.4509 8.75181C28.368 7.61529 28.9956 6.06908 28.8214 4.5C27.4939 4.55823 25.8338 5.40984 24.8778 6.5214C24.032 7.50091 23.2764 9.10639 23.4716 10.6162C24.9628 10.7264 26.4938 9.87066 27.4509 8.75181Z" fill="white"/>
<path fill-rule="evenodd" clip-rule="evenodd" d="M53.1059 30.7944H55.4891L50.9715 16.9565H48.1948L43.6992 30.7944H46.0194L47.2629 26.7298H51.8005L53.1059 30.7944ZM50.2251 21.4105L51.4057 25.0238H47.6562L48.8158 21.4105C49.1201 20.2615 49.3416 19.3922 49.479 18.8036H49.521C49.8663 20.172 50.1003 21.0413 50.2251 21.4105Z" fill="white"/>
<path fill-rule="evenodd" clip-rule="evenodd" d="M65.6606 29.7051C66.5862 28.7204 67.049 27.379 67.049 25.682C67.049 24.1629 66.6523 22.9379 65.8568 22.0063C65.0635 21.0756 64.0718 20.6108 62.8839 20.6108C61.3644 20.6108 60.2321 21.2056 59.486 22.3972H59.444L59.3192 20.8157H57.3516C57.4061 21.9387 57.4345 23.0336 57.4345 24.1005V34.8595H59.6718V29.6032H59.7137C60.294 30.5473 61.2469 31.0194 62.5733 31.0194C63.8021 31.0194 64.8316 30.5817 65.6606 29.7051ZM64.1055 23.3611C64.5484 23.9913 64.7687 24.7919 64.7687 25.7631C64.7687 26.8175 64.5337 27.666 64.0636 28.3096C63.5945 28.9522 62.9386 29.2746 62.096 29.2746C61.3782 29.2746 60.7947 29.025 60.3456 28.5249C59.8964 28.0247 59.6719 27.4123 59.6719 26.6865V25.0228C59.6719 24.846 59.7065 24.6214 59.7758 24.3469C59.9132 23.7583 60.2071 23.2831 60.6562 22.9192C61.1043 22.5584 61.6059 22.3754 62.1579 22.3754C62.9722 22.3754 63.6218 22.704 64.1055 23.3611Z" fill="white"/>
<path fill-rule="evenodd" clip-rule="evenodd" d="M77.2445 29.7051C78.1711 28.7204 78.6338 27.379 78.6338 25.682C78.6338 24.1629 78.2361 22.9379 77.4438 22.0063C76.6484 21.0756 75.6567 20.6108 74.4699 20.6108C72.9493 20.6108 71.817 21.2056 71.072 22.3972H71.03L70.9051 20.8157H68.9375C68.9921 21.9387 69.0204 23.0336 69.0204 24.1005V34.8595H71.2577V29.6032H71.2997C71.8789 30.5473 72.8318 31.0194 74.1582 31.0194C75.387 31.0194 76.4165 30.5817 77.2445 29.7051ZM75.6885 23.3611C76.1313 23.9913 76.3527 24.7919 76.3527 25.7631C76.3527 26.8175 76.1177 27.666 75.6475 28.3096C75.1785 28.9522 74.5226 29.2746 73.6799 29.2746C72.9601 29.2746 72.3766 29.024 71.9275 28.5249C71.4804 28.0247 71.2559 27.4123 71.2559 26.6865V25.0228C71.2559 24.846 71.2915 24.6214 71.3598 24.3469C71.4972 23.7583 71.79 23.2831 72.2391 22.9192C72.6883 22.5584 73.1888 22.3754 73.7419 22.3754C74.5572 22.3754 75.2047 22.704 75.6885 23.3611Z" fill="white"/>
<path d="M91.582 26.9132C91.582 28.0903 91.1696 29.048 90.3416 29.7873C89.4318 30.5952 88.1652 30.9987 86.5376 30.9987C85.0349 30.9987 83.8302 30.7117 82.9183 30.1367L83.4367 28.2889C84.4189 28.8775 85.4966 29.1728 86.6709 29.1728C87.5135 29.1728 88.1694 28.9835 88.6406 28.6071C89.1097 28.2307 89.3437 27.7253 89.3437 27.0952C89.3437 26.5337 89.1506 26.0606 88.7634 25.6769C88.3782 25.2932 87.735 24.9365 86.8367 24.6069C84.3916 23.7033 83.1701 22.3796 83.1701 20.639C83.1701 19.5014 83.5983 18.5687 84.4556 17.8429C85.3098 17.1161 86.4495 16.7532 87.8745 16.7532C89.1453 16.7532 90.201 16.9726 91.0437 17.4103L90.4844 19.2175C89.6973 18.7933 88.8074 18.5812 87.8116 18.5812C87.0245 18.5812 86.4096 18.7735 85.9688 19.1562C85.5963 19.4983 85.4095 19.9153 85.4095 20.4092C85.4095 20.9561 85.6226 21.4084 86.0507 21.7641C86.4232 22.0926 87.1001 22.4483 88.0823 22.8319C89.2839 23.3113 90.1664 23.8718 90.7341 24.5144C91.2997 25.1549 91.582 25.9566 91.582 26.9132Z" fill="white"/>
<path d="M98.9783 22.4795H96.5122V27.324C96.5122 28.5562 96.9467 29.1718 97.8177 29.1718C98.2175 29.1718 98.5491 29.1375 98.8115 29.0688L98.8734 30.7523C98.4326 30.9156 97.8523 30.9977 97.1335 30.9977C96.2499 30.9977 95.5594 30.7305 95.061 30.197C94.5646 29.6626 94.3148 28.7662 94.3148 27.507V22.4774H92.8457V20.8137H94.3148V18.9868L96.5123 18.3296V20.8137H98.9783C98.9783 20.8137 98.9783 22.4795 98.9783 22.4795Z" fill="white"/>
<path fill-rule="evenodd" clip-rule="evenodd" d="M108.779 29.5004C109.663 28.5157 110.105 27.2565 110.105 25.7228C110.105 24.2306 109.677 23.013 108.819 22.0699C107.922 21.0977 106.733 20.6121 105.255 20.6121C103.722 20.6121 102.503 21.1049 101.599 22.0907C100.693 23.0754 100.242 24.3419 100.242 25.8881C100.242 27.3657 100.681 28.5916 101.558 29.5628C102.435 30.534 103.612 31.0196 105.089 31.0196C106.622 31.0196 107.852 30.5142 108.779 29.5004ZM107.184 23.4268C107.586 24.085 107.784 24.8743 107.784 25.7945C107.784 26.7137 107.576 27.5113 107.164 28.1819C106.68 28.9909 106.01 29.3964 105.155 29.3964C104.283 29.3964 103.607 28.9992 103.124 28.2027C102.722 27.5456 102.523 26.7563 102.523 25.8361C102.523 24.8878 102.722 24.0861 103.124 23.4268C103.593 22.6314 104.276 22.2331 105.175 22.2331C106.044 22.2331 106.715 22.6303 107.184 23.4268Z" fill="white"/>
<path d="M117.378 22.7654C117.156 22.7248 116.92 22.704 116.673 22.704C115.886 22.704 115.277 22.9983 114.849 23.5878C114.476 24.1078 114.289 24.7649 114.289 25.5583V30.7938H112.053L112.074 23.958C112.074 22.808 112.046 21.7609 111.99 20.8167H113.939L114.021 22.7258H114.083C114.319 22.0697 114.691 21.5415 115.201 21.1453C115.7 20.7887 116.238 20.6108 116.818 20.6108C117.025 20.6108 117.212 20.6254 117.378 20.6514C117.378 20.6514 117.378 22.7654 117.378 22.7654Z" fill="white"/>
<path fill-rule="evenodd" clip-rule="evenodd" d="M127.301 26.3383C127.357 26.0648 127.383 25.73 127.383 25.3328C127.383 24.0881 127.086 23.04 126.495 22.1926C125.749 21.1257 124.65 20.5923 123.199 20.5923C121.721 20.5923 120.547 21.1257 119.678 22.1926C118.848 23.1918 118.434 24.4448 118.434 25.9494C118.434 27.4821 118.88 28.7039 119.769 29.6137C120.661 30.5236 121.887 30.979 123.449 30.979C124.747 30.979 125.872 30.7742 126.824 30.3624L126.474 28.8235C125.659 29.1385 124.752 29.2956 123.758 29.2956C122.86 29.2956 122.129 29.0626 121.563 28.5978C120.94 28.0779 120.615 27.3241 120.589 26.3383H127.301ZM125.248 24.7574C125.248 24.7575 125.248 24.7577 125.248 24.7578H125.248V24.7574ZM125.248 24.7574C125.263 24.1004 125.117 23.5328 124.814 23.0535C124.427 22.4369 123.832 22.1291 123.031 22.1291C122.299 22.1291 121.704 22.4296 121.25 23.0327C120.878 23.5121 120.656 24.0871 120.588 24.7568H125.248V24.7574Z" fill="white"/>
<path d="M44.7648 5.59806C45.003 5.45664 45.2716 5.3381 45.5739 5.24036C45.875 5.14262 46.2297 5.09375 46.6379 5.09375C47.2959 5.09375 47.8143 5.24869 48.1942 5.55751C48.5741 5.86634 48.764 6.28331 48.764 6.80841C48.764 7.22538 48.637 7.57476 48.3831 7.85759C48.1291 8.14041 47.8038 8.32863 47.4103 8.42221V8.45236C47.6275 8.48668 47.8332 8.54491 48.0263 8.62913C48.2204 8.71336 48.3904 8.82566 48.5352 8.96707C48.6811 9.10848 48.7965 9.27277 48.8815 9.46202C48.9655 9.65023 49.0085 9.85819 49.0085 10.088C49.0085 10.4644 48.9319 10.7805 48.7787 11.0363C48.6255 11.2921 48.4261 11.5001 48.1784 11.6623C47.9318 11.8235 47.6548 11.9399 47.3494 12.0096C47.044 12.0793 46.7387 12.1156 46.4333 12.1156C46.1069 12.1156 45.7848 12.0813 45.4658 12.0148C45.1468 11.9482 44.8519 11.837 44.5801 11.682L44.855 10.845C45.0313 10.9323 45.259 11.0166 45.5371 11.0977C45.8152 11.1788 46.0964 11.2183 46.3819 11.2183C46.8499 11.2183 47.2119 11.1143 47.4659 10.9063C47.7198 10.6973 47.8479 10.4187 47.8479 10.0693C47.8479 9.83324 47.7965 9.64087 47.6947 9.48906C47.5918 9.33725 47.4596 9.2187 47.2969 9.13032C47.1343 9.04297 46.9527 8.98267 46.7523 8.94939C46.5519 8.91612 46.3535 8.89844 46.1573 8.89844H45.6987V8.06971H46.1573C46.3672 8.06971 46.5624 8.04372 46.7429 7.9886C46.9223 7.93557 47.0787 7.85966 47.2109 7.76192C47.3431 7.66418 47.447 7.54772 47.5215 7.41358C47.595 7.27944 47.6327 7.12763 47.6327 6.95918C47.6327 6.65659 47.5236 6.41951 47.3064 6.24795C47.0892 6.07638 46.7974 5.99007 46.4312 5.99007C46.1804 5.99007 45.9285 6.03063 45.6777 6.11069C45.4269 6.1918 45.2024 6.27915 45.0051 6.37273L44.7648 5.59806Z" fill="white"/>
<path fill-rule="evenodd" clip-rule="evenodd" d="M53.4254 11.4386L53.5062 12.0032H53.5062V12.0043H54.4947C54.4475 11.7287 54.4234 11.3388 54.4234 10.8345V9.02935C54.4234 7.67759 53.7759 7.00171 52.482 7.00171C51.8051 7.00171 51.2395 7.14313 50.7851 7.42492L51.0087 8.14031C51.3801 7.89908 51.8104 7.77742 52.2984 7.77742C52.9826 7.77742 53.3247 8.09976 53.3247 8.74549V8.83595C52.4012 8.83595 51.6897 8.9888 51.1871 9.29451C50.6844 9.60022 50.4336 10.0598 50.4336 10.6712C50.4336 10.8792 50.4703 11.0716 50.5448 11.2463C50.6204 11.422 50.7243 11.5728 50.8607 11.7007C50.9961 11.8286 51.1556 11.9294 51.3392 12.0032C51.5229 12.0771 51.7254 12.1145 51.95 12.1145C52.5817 12.1145 53.0634 11.8889 53.395 11.4386H53.4254ZM51.9814 9.79469C52.2816 9.63975 52.7391 9.56281 53.353 9.56281V10.3188C53.353 10.4602 53.3236 10.5922 53.2627 10.717C53.2008 10.8418 53.1221 10.9478 53.0235 11.0352C52.9259 11.1225 52.8136 11.1922 52.6856 11.2421C52.5565 11.2931 52.4222 11.318 52.2805 11.318C52.0643 11.318 51.8849 11.2546 51.7432 11.1267C51.6016 10.9988 51.5312 10.8075 51.5312 10.5517C51.5312 10.2023 51.6813 9.94963 51.9814 9.79469Z" fill="white"/>
<path d="M59.7278 7.10156V7.99892H57.671V12.0033H56.5723V7.10156H59.7278V7.10156Z" fill="white"/>
<path fill-rule="evenodd" clip-rule="evenodd" d="M65.8535 10.5611C65.9616 10.2388 66.0162 9.88214 66.0162 9.49221C66.0162 9.12203 65.9637 8.78409 65.8588 8.47734C65.7538 8.17059 65.6101 7.90856 65.4264 7.6902C65.2428 7.47183 65.0276 7.30234 64.78 7.18068C64.5323 7.06006 64.2616 6.99976 63.9709 6.99976C63.2238 6.99976 62.6676 7.29299 62.3013 7.87736H62.2804L62.2184 7.10062H61.252C61.2645 7.38345 61.275 7.65796 61.2813 7.92312C61.2887 8.18931 61.2918 8.45342 61.2918 8.71546V14.0009H62.3916V11.419H62.4126C62.698 11.8828 63.166 12.1146 63.8177 12.1146C64.1441 12.1146 64.44 12.0502 64.7086 11.9223C64.9762 11.7954 65.2071 11.6166 65.4002 11.3878C65.5943 11.1601 65.7444 10.8845 65.8535 10.5611ZM64.8107 8.86293C64.8684 9.06778 64.8978 9.29133 64.8978 9.53361C64.8978 10.0577 64.7803 10.4778 64.5494 10.7907C64.3186 11.1037 63.9964 11.2597 63.5819 11.2597C63.4056 11.2597 63.245 11.2285 63.0992 11.164C62.9533 11.1006 62.8274 11.0112 62.7224 10.8968C62.6175 10.7824 62.5367 10.6483 62.479 10.4934C62.4202 10.3384 62.3919 10.17 62.3919 9.98904V9.17175C62.3919 8.98978 62.4265 8.81822 62.4947 8.65704C62.5629 8.49587 62.6521 8.35758 62.7644 8.2432C62.8757 8.12881 63.0058 8.03731 63.1558 7.97076C63.3059 7.90422 63.4591 7.8699 63.6144 7.8699C63.8117 7.8699 63.9901 7.9115 64.1496 7.99572C64.3091 8.07995 64.4455 8.19433 64.5568 8.33886C64.668 8.4834 64.753 8.65809 64.8107 8.86293Z" fill="white"/>
<path d="M71.9231 7.10156L70.6701 10.5007C70.3721 11.3076 70.0814 11.9679 69.8001 12.4826C69.5179 12.9973 69.2492 13.3717 68.9911 13.6077C68.6112 13.9436 68.2072 14.1494 67.779 14.2222L67.5146 13.3051C67.799 13.2313 68.0708 13.0867 68.3289 12.8715C68.586 12.6563 68.7927 12.388 68.9501 12.0646C69.0047 11.9575 69.0309 11.8837 69.0309 11.8431C69.0309 11.8026 69.01 11.7256 68.9701 11.6112L67.1777 7.10258H68.3887L69.3258 9.83627C69.3741 9.96417 69.4213 10.1087 69.4685 10.2699C69.5168 10.4311 69.5672 10.6099 69.6218 10.8043H69.6427C69.6763 10.6962 69.7141 10.561 69.754 10.3957C69.7949 10.2314 69.8495 10.0411 69.9166 9.82588L70.7519 7.10259H71.9231V7.10156H71.9231Z" fill="white"/>
<path d="M73.8262 9.1386H74.3341C74.7066 9.1386 74.9962 9.07206 75.1988 8.93688C75.4013 8.8017 75.5041 8.63741 75.5041 8.44192C75.5041 8.2402 75.4181 8.07903 75.2439 7.95841C75.0718 7.83779 74.8315 7.77644 74.5261 7.77644C74.3288 7.77644 74.1305 7.80868 73.9321 7.8721C73.7317 7.93657 73.547 8.0156 73.377 8.10918L73.0926 7.40419C73.377 7.2503 73.6604 7.14423 73.9437 7.08704C74.2249 7.02985 74.5072 7.00073 74.7926 7.00073C75.0182 7.00073 75.2439 7.02257 75.4705 7.06624C75.6962 7.10991 75.8987 7.18374 76.075 7.28772C76.2513 7.3917 76.3971 7.52792 76.5073 7.69637C76.6196 7.86482 76.6752 8.07278 76.6752 8.32234C76.6752 8.47728 76.6448 8.61349 76.5829 8.73099C76.5231 8.84849 76.4412 8.95247 76.3394 9.04294C76.2387 9.1334 76.1243 9.20826 75.9994 9.26442C75.8746 9.32161 75.7455 9.36424 75.6185 9.39128V9.42143C75.7801 9.44223 75.9386 9.48278 76.0918 9.54309C76.244 9.6034 76.3804 9.68243 76.5042 9.78017C76.6249 9.87792 76.7235 9.99541 76.7991 10.1327C76.8725 10.271 76.9093 10.4269 76.9093 10.6016C76.9093 10.8907 76.84 11.133 76.6962 11.3274C76.5546 11.5229 76.372 11.6768 76.1506 11.7912C75.9312 11.9056 75.6878 11.9877 75.4233 12.0387C75.1589 12.0886 74.9008 12.1146 74.651 12.1146C74.3456 12.1146 74.0424 12.0823 73.7454 12.0189C73.4463 11.9545 73.1777 11.8557 72.9395 11.7215L73.2259 11.0051C73.4022 11.0997 73.6027 11.1787 73.8304 11.2422C74.0581 11.3056 74.29 11.3378 74.5272 11.3378C74.8997 11.3378 75.1872 11.2661 75.3877 11.1216C75.586 10.977 75.6867 10.7971 75.6867 10.5819C75.6867 10.4405 75.6542 10.3219 75.586 10.2242C75.5178 10.1265 75.4223 10.0474 75.3016 9.98712C75.1788 9.92681 75.0372 9.88417 74.8735 9.86129C74.7119 9.83738 74.5335 9.82594 74.3446 9.82594H73.8262V9.1386H73.8262Z" fill="white"/>
<path d="M79.6968 7.10169V8.8361C79.6968 9.23331 79.6905 9.58998 79.6758 9.90504C79.6611 10.2211 79.6454 10.5539 79.6244 10.9033L79.6454 10.923C79.7744 10.6672 79.9014 10.4177 80.0263 10.1712C80.1533 9.92583 80.2802 9.67523 80.4093 9.41944L81.6308 7.09961H83.0548V12.0013H82.0159V10.2669C82.0159 9.904 82.0264 9.5411 82.0422 9.17821C82.059 8.81426 82.0768 8.44826 82.0978 8.07808H82.0464C81.932 8.38066 81.8165 8.6427 81.7001 8.86522C81.5857 9.0867 81.4702 9.31546 81.3559 9.5515C81.1449 9.95495 80.9361 10.3584 80.7283 10.7618C80.5216 11.1653 80.3023 11.5791 80.0725 12.0023H78.6484V7.10169H79.6968Z" fill="white"/>
<path d="M88.8586 7.10156V7.99892H87.3527V12.0033H86.2718V7.99892H84.7754V7.10156H88.8586Z" fill="white"/>
<path fill-rule="evenodd" clip-rule="evenodd" d="M94.4567 9.58788C94.463 9.50365 94.4672 9.41423 94.4672 9.32065C94.4672 8.97127 94.42 8.65309 94.3235 8.36818C94.229 8.08328 94.0916 7.83683 93.9111 7.63199C93.7327 7.4261 93.5154 7.26805 93.2615 7.15783C93.0044 7.04657 92.7221 6.99146 92.4104 6.99146C92.0578 6.99146 91.7357 7.05905 91.4471 7.19318C91.1606 7.32836 90.914 7.5124 90.7094 7.74844C90.5069 7.98344 90.3484 8.26107 90.2361 8.5803C90.1259 8.89952 90.0703 9.24785 90.0703 9.62427C90.0703 10.0007 90.1259 10.3397 90.2361 10.6423C90.3484 10.9448 90.5111 11.2038 90.7199 11.419C90.9308 11.6342 91.1889 11.8006 91.4943 11.9181C91.7997 12.0356 92.146 12.0949 92.5311 12.0949C93.1702 12.0949 93.7222 11.994 94.1912 11.7923L94.0191 11.0353C93.612 11.1902 93.167 11.2672 92.6854 11.2672C92.2247 11.2672 91.8522 11.1403 91.5709 10.8887C91.2897 10.6371 91.1428 10.2783 91.1281 9.81456H94.4263C94.4399 9.74802 94.4504 9.6721 94.4567 9.58788ZM93.1384 8.10686C93.3252 8.34498 93.4175 8.65588 93.4175 9.03958H91.1288C91.1634 8.66213 91.2925 8.35329 91.516 8.11102C91.7395 7.86875 92.0092 7.74813 92.3293 7.74813C92.6819 7.74813 92.9516 7.86874 93.1384 8.10686Z" fill="white"/>
<path fill-rule="evenodd" clip-rule="evenodd" d="M98.8965 7.14227C99.0938 7.10899 99.3435 7.08196 99.6489 7.06116C99.9543 7.04036 100.266 7.03101 100.586 7.03101C100.789 7.03101 101.018 7.04348 101.272 7.06636C101.526 7.08924 101.771 7.1433 102 7.22753C102.231 7.31175 102.423 7.43758 102.58 7.60603C102.736 7.77448 102.816 8.0022 102.816 8.29127C102.816 8.43997 102.788 8.57306 102.734 8.68953C102.678 8.80702 102.607 8.90997 102.515 8.99731C102.422 9.08466 102.317 9.15745 102.199 9.21359C102.08 9.27078 101.958 9.31341 101.827 9.33941L101.838 9.36957C102.197 9.42987 102.49 9.55777 102.713 9.75326C102.937 9.94875 103.049 10.217 103.049 10.5602C103.049 10.9033 102.952 11.1757 102.765 11.3775C102.574 11.5792 102.341 11.731 102.061 11.8319C101.782 11.9327 101.49 11.9972 101.18 12.0242C100.872 12.0502 100.595 12.0648 100.352 12.0648C100.079 12.0648 99.8126 12.0585 99.5524 12.044C99.29 12.0305 99.0728 12.0169 98.8965 12.0034V7.14227H98.8965ZM99.955 9.09994H100.514C100.684 9.09994 100.846 9.0885 100.998 9.06458C101.151 9.04171 101.285 9.00428 101.4 8.95436C101.517 8.90341 101.605 8.83686 101.671 8.75263C101.735 8.66841 101.767 8.56651 101.767 8.44485C101.767 8.22337 101.675 8.06011 101.486 7.95613C101.299 7.85215 101.007 7.80016 100.607 7.80016C100.492 7.80016 100.392 7.80327 100.306 7.81056C100.222 7.81679 100.105 7.82719 99.955 7.84071L99.955 9.09994ZM100.295 11.2974C100.205 11.2901 100.09 11.2807 99.9551 11.2672V11.2672H99.9551V9.80418H100.535C100.965 9.80418 101.302 9.85722 101.554 9.96432C101.804 10.0714 101.931 10.2648 101.931 10.5456C101.931 10.7057 101.89 10.8346 101.813 10.9313C101.735 11.0291 101.632 11.106 101.503 11.1622C101.374 11.2194 101.23 11.2579 101.075 11.2776C100.918 11.2984 100.767 11.3078 100.617 11.3078C100.493 11.3078 100.387 11.3046 100.295 11.2974Z" fill="white"/>
</g>
<defs>
<clipPath id="clip0_1418_2891">
<rect width="116" height="31" fill="white" transform="translate(12 4.5)"/>
</clipPath>
</defs>
</svg>
