<svg width="140" height="40" viewBox="0 0 140 40" fill="none" xmlns="http://www.w3.org/2000/svg">
<rect width="140" height="40" rx="4" fill="#101828"/>
<path d="M70.2996 21.3499C67.8996 21.3499 65.9996 23.1499 65.9996 25.6499C65.9996 28.0499 67.8996 29.9499 70.2996 29.9499C72.6996 29.9499 74.5996 28.1499 74.5996 25.6499C74.5996 23.0499 72.6996 21.3499 70.2996 21.3499ZM70.2996 28.1499C68.9996 28.1499 67.8996 27.0499 67.8996 25.5499C67.8996 24.0499 68.9996 22.9499 70.2996 22.9499C71.5996 22.9499 72.6996 23.9499 72.6996 25.5499C72.6996 27.0499 71.5996 28.1499 70.2996 28.1499ZM60.9996 21.3499C58.5996 21.3499 56.6996 23.1499 56.6996 25.6499C56.6996 28.0499 58.5996 29.9499 60.9996 29.9499C63.3996 29.9499 65.2996 28.1499 65.2996 25.6499C65.2996 23.0499 63.3996 21.3499 60.9996 21.3499ZM60.9996 28.1499C59.6996 28.1499 58.5996 27.0499 58.5996 25.5499C58.5996 24.0499 59.6996 22.9499 60.9996 22.9499C62.2996 22.9499 63.3996 23.9499 63.3996 25.5499C63.3996 27.0499 62.2996 28.1499 60.9996 28.1499ZM49.8996 22.6499V24.4499H54.1996C54.0996 25.4499 53.6996 26.2499 53.1996 26.7499C52.5996 27.3499 51.5996 28.0499 49.8996 28.0499C47.1996 28.0499 45.1996 25.9499 45.1996 23.2499C45.1996 20.5499 47.2996 18.4499 49.8996 18.4499C51.2996 18.4499 52.3996 19.0499 53.1996 19.7499L54.4996 18.4499C53.3996 17.4499 51.9996 16.6499 49.9996 16.6499C46.3996 16.6499 43.2996 19.6499 43.2996 23.2499C43.2996 26.8499 46.3996 29.8499 49.9996 29.8499C51.9996 29.8499 53.3996 29.2499 54.5996 27.9499C55.7996 26.7499 56.1996 25.0499 56.1996 23.7499C56.1996 23.3499 56.1996 22.9499 56.0996 22.6499H49.8996ZM95.2996 24.0499C94.8996 23.0499 93.8996 21.3499 91.6996 21.3499C89.4996 21.3499 87.6996 23.0499 87.6996 25.6499C87.6996 28.0499 89.4996 29.9499 91.8996 29.9499C93.7996 29.9499 94.9996 28.7499 95.3996 28.0499L93.9996 27.0499C93.4996 27.7499 92.8996 28.2499 91.8996 28.2499C90.8996 28.2499 90.2996 27.8499 89.7996 26.9499L95.4996 24.5499L95.2996 24.0499ZM89.4996 25.4499C89.4996 23.8499 90.7996 22.9499 91.6996 22.9499C92.3996 22.9499 93.0996 23.3499 93.2996 23.8499L89.4996 25.4499ZM84.7996 29.5499H86.6996V17.0499H84.7996V29.5499ZM81.7996 22.2499C81.2996 21.7499 80.4996 21.2499 79.4996 21.2499C77.3996 21.2499 75.3996 23.1499 75.3996 25.5499C75.3996 27.9499 77.2996 29.7499 79.4996 29.7499C80.4996 29.7499 81.2996 29.2499 81.6996 28.7499H81.7996V29.3499C81.7996 30.9499 80.8996 31.8499 79.4996 31.8499C78.3996 31.8499 77.5996 31.0499 77.3996 30.3499L75.7996 31.0499C76.2996 32.1499 77.4996 33.5499 79.5996 33.5499C81.7996 33.5499 83.5996 32.2499 83.5996 29.1499V21.5499H81.7996V22.2499ZM79.5996 28.1499C78.2996 28.1499 77.1996 27.0499 77.1996 25.5499C77.1996 24.0499 78.2996 22.9499 79.5996 22.9499C80.8996 22.9499 81.8996 24.0499 81.8996 25.5499C81.8996 27.0499 80.8996 28.1499 79.5996 28.1499ZM104 17.0499H99.4996V29.5499H101.4V24.8499H104C106.1 24.8499 108.1 23.3499 108.1 20.9499C108.1 18.5499 106.1 17.0499 104 17.0499ZM104.1 23.0499H101.4V18.7499H104.1C105.5 18.7499 106.3 19.9499 106.3 20.8499C106.2 21.9499 105.4 23.0499 104.1 23.0499ZM115.6 21.2499C114.2 21.2499 112.8 21.8499 112.3 23.1499L114 23.8499C114.4 23.1499 115 22.9499 115.7 22.9499C116.7 22.9499 117.6 23.5499 117.7 24.5499V24.6499C117.4 24.4499 116.6 24.1499 115.8 24.1499C114 24.1499 112.2 25.1499 112.2 26.9499C112.2 28.6499 113.7 29.7499 115.3 29.7499C116.6 29.7499 117.2 29.1499 117.7 28.5499H117.8V29.5499H119.6V24.7499C119.4 22.5499 117.7 21.2499 115.6 21.2499ZM115.4 28.1499C114.8 28.1499 113.9 27.8499 113.9 27.0499C113.9 26.0499 115 25.7499 115.9 25.7499C116.7 25.7499 117.1 25.9499 117.6 26.1499C117.4 27.3499 116.4 28.1499 115.4 28.1499ZM125.9 21.5499L123.8 26.9499H123.7L121.5 21.5499H119.5L122.8 29.1499L120.9 33.3499H122.8L127.9 21.5499H125.9ZM109.1 29.5499H111V17.0499H109.1V29.5499Z" fill="white"/>
<path d="M12.6003 7.05005C12.3003 7.35005 12.1003 7.85005 12.1003 8.45005V30.55C12.1003 31.15 12.3003 31.6501 12.6003 31.9501L12.7003 32.05L25.1003 19.65V19.55V19.45L12.6003 7.05005Z" fill="url(#paint0_linear_1418_2868)"/>
<path d="M29.2003 23.8499L25.1003 19.7499V19.5499V19.4499L29.2003 15.3499L29.3003 15.4499L34.2003 18.2499C35.6003 19.0499 35.6003 20.3499 34.2003 21.1499L29.2003 23.8499Z" fill="url(#paint1_linear_1418_2868)"/>
<path d="M29.3003 23.75L25.1003 19.55L12.6003 32.05C13.1003 32.55 13.8003 32.55 14.7003 32.15L29.3003 23.75Z" fill="url(#paint2_linear_1418_2868)"/>
<path d="M29.3003 15.3499L14.7003 7.04992C13.8003 6.54992 13.1003 6.64992 12.6003 7.14992L25.1003 19.5499L29.3003 15.3499Z" fill="url(#paint3_linear_1418_2868)"/>
<path opacity="0.2" d="M29.2003 23.6499L14.7003 31.8499C13.9003 32.3499 13.2003 32.2499 12.7003 31.8499L12.6003 31.9499L12.7003 32.0499C13.2003 32.4499 13.9003 32.5499 14.7003 32.0499L29.2003 23.6499Z" fill="#101828"/>
<path opacity="0.12" d="M12.6003 31.8499C12.3003 31.5499 12.2003 31.05 12.2003 30.45V30.5499C12.2003 31.1499 12.4003 31.65 12.7003 31.95V31.8499H12.6003Z" fill="#101828"/>
<path opacity="0.12" d="M34.2003 20.85L29.2003 23.65L29.3003 23.75L34.2003 20.95C34.9003 20.55 35.2003 20.05 35.2003 19.55C35.2003 20.05 34.8003 20.45 34.2003 20.85Z" fill="#101828"/>
<path opacity="0.25" d="M14.7003 7.14993L34.2003 18.2499C34.8003 18.6499 35.2003 19.0499 35.2003 19.5499C35.2003 19.0499 34.9003 18.5499 34.2003 18.1499L14.7003 7.04993C13.3003 6.24993 12.2003 6.94993 12.2003 8.54993V8.64993C12.2003 7.04993 13.3003 6.34993 14.7003 7.14993Z" fill="white"/>
<path d="M44.3003 13.85H43.6003V11.85H44.2003C44.7003 11.45 45.0003 10.65 45.0003 9.55005V6.55005H49.0003V11.85H49.7003V13.85H49.0003V12.55H44.4003V13.85H44.3003ZM45.7003 9.55005C45.7003 10.45 45.5003 11.25 45.1003 11.85H48.1003V7.35005H45.6003V9.55005H45.7003Z" fill="white" stroke="white" stroke-width="0.2" stroke-miterlimit="10"/>
<path d="M55.6004 11.75C55.0004 12.35 54.3004 12.65 53.4004 12.65C52.5004 12.65 51.8004 12.35 51.2004 11.75C50.6004 11.15 50.3004 10.45 50.3004 9.54995C50.3004 8.64995 50.6004 7.94995 51.2004 7.34995C51.8004 6.74995 52.5004 6.44995 53.4004 6.44995C54.3004 6.44995 55.0004 6.74995 55.6004 7.34995C56.2004 7.94995 56.5004 8.64995 56.5004 9.54995C56.5004 10.45 56.2004 11.15 55.6004 11.75ZM51.8004 11.25C52.2004 11.65 52.8004 11.95 53.4004 11.95C54.0004 11.95 54.6004 11.75 55.0004 11.25C55.4004 10.85 55.7004 10.25 55.7004 9.54995C55.7004 8.84995 55.5004 8.24995 55.0004 7.84995C54.6004 7.44995 54.0004 7.14995 53.4004 7.14995C52.8004 7.14995 52.2004 7.34995 51.8004 7.84995C51.4004 8.24995 51.1004 8.84995 51.1004 9.54995C51.1004 10.25 51.3004 10.85 51.8004 11.25Z" fill="white" stroke="white" stroke-width="0.2" stroke-miterlimit="10"/>
<path d="M60.4004 12.65C59.5004 12.65 58.8004 12.35 58.2004 11.75C57.6004 11.15 57.3004 10.45 57.3004 9.54995C57.3004 8.64995 57.6004 7.94995 58.2004 7.34995C58.8004 6.74995 59.5004 6.44995 60.4004 6.44995C61.3004 6.44995 62.0004 6.74995 62.6004 7.44995L62.1004 7.94995C61.7004 7.44995 61.1004 7.14995 60.4004 7.14995C59.7004 7.14995 59.2004 7.34995 58.7004 7.84995C58.2004 8.24995 58.0004 8.84995 58.0004 9.54995C58.0004 10.25 58.2004 10.85 58.7004 11.25C59.1004 11.65 59.7004 11.95 60.4004 11.95C61.1004 11.95 61.7004 11.65 62.2004 11.05L62.7004 11.55C62.4004 11.85 62.1004 12.15 61.7004 12.35C61.3004 12.55 60.9004 12.65 60.4004 12.65Z" fill="white" stroke="white" stroke-width="0.2" stroke-miterlimit="10"/>
<path d="M65.9003 12.55H65.1003V7.25005H63.4003V6.55005H67.5003V7.25005H65.8003V12.55H65.9003Z" fill="white" stroke="white" stroke-width="0.2" stroke-miterlimit="10"/>
<path d="M72.8004 6.55005L70.5004 11.65C70.2004 12.35 69.7004 12.75 69.1004 12.75C68.9004 12.75 68.7004 12.75 68.5004 12.65L68.7004 11.95C68.8004 12.05 69.0004 12.05 69.1004 12.05C69.3004 12.05 69.4004 12.05 69.5004 11.95C69.6004 11.85 69.7004 11.75 69.8004 11.55L70.0004 11.05L68.0004 6.65005H68.9004L70.4004 10.05L71.8004 6.65005H72.8004V6.55005Z" fill="white" stroke="white" stroke-width="0.2" stroke-miterlimit="10"/>
<path d="M73.7003 12.55V6.55005H78.0003V12.55H77.2003V7.25005H74.4003V12.55H73.7003Z" fill="white" stroke="white" stroke-width="0.2" stroke-miterlimit="10"/>
<path d="M79.4003 12.55V6.55005H80.2003V9.15005H83.2003V6.55005H84.0003V12.55H83.2003V9.85005H80.2003V12.55H79.4003Z" fill="white" stroke="white" stroke-width="0.2" stroke-miterlimit="10"/>
<path d="M90.3004 11.75C89.7004 12.35 89.0004 12.65 88.1004 12.65C87.2004 12.65 86.5004 12.35 85.9004 11.75C85.3004 11.15 85.0004 10.45 85.0004 9.54995C85.0004 8.64995 85.3004 7.94995 85.9004 7.34995C86.5004 6.74995 87.2004 6.44995 88.1004 6.44995C89.0004 6.44995 89.7004 6.74995 90.3004 7.34995C90.9004 7.94995 91.2004 8.64995 91.2004 9.54995C91.1004 10.45 90.8004 11.15 90.3004 11.75ZM86.4004 11.25C86.8004 11.65 87.4004 11.95 88.0004 11.95C88.6004 11.95 89.2004 11.75 89.6004 11.25C90.0004 10.85 90.3004 10.25 90.3004 9.54995C90.3004 8.84995 90.1004 8.24995 89.6004 7.84995C89.2004 7.44995 88.6004 7.14995 88.0004 7.14995C87.4004 7.14995 86.8004 7.34995 86.4004 7.84995C86.0004 8.24995 85.7004 8.84995 85.7004 9.54995C85.7004 10.25 86.0004 10.85 86.4004 11.25Z" fill="white" stroke="white" stroke-width="0.2" stroke-miterlimit="10"/>
<path d="M94.3004 12.55V6.55005H96.5004C97.0004 6.55005 97.4004 6.75005 97.7004 7.05005C98.0004 7.35005 98.2004 7.75005 98.2004 8.25005C98.2004 8.55005 98.1004 8.75005 98.0004 9.05005C97.9004 9.25005 97.7004 9.45005 97.4004 9.55005C97.7004 9.65005 97.9004 9.85005 98.1004 10.05C98.3004 10.25 98.4004 10.55 98.4004 10.95C98.4004 11.45 98.2004 11.85 97.9004 12.15C97.5004 12.45 97.1004 12.65 96.6004 12.65H94.3004V12.55ZM95.1004 9.15005H96.5004C96.8004 9.15005 97.0004 9.05005 97.2004 8.85005C97.4004 8.65005 97.5004 8.45005 97.5004 8.25005C97.5004 8.05005 97.4004 7.85005 97.2004 7.65005C97.0004 7.45005 96.8004 7.35005 96.5004 7.35005H95.1004V9.15005ZM95.1004 11.85H96.7004C97.0004 11.85 97.2004 11.75 97.4004 11.55C97.6004 11.35 97.7004 11.15 97.7004 10.85C97.7004 10.65 97.6004 10.35 97.4004 10.15C97.2004 9.95005 97.0004 9.85005 96.7004 9.85005H95.2004V11.85H95.1004Z" fill="white" stroke="white" stroke-width="0.2" stroke-miterlimit="10"/>
<defs>
<linearGradient id="paint0_linear_1418_2868" x1="24" y1="8.25975" x2="7.21764" y2="25.0422" gradientUnits="userSpaceOnUse">
<stop stop-color="#00A0FF"/>
<stop offset="0.00657445" stop-color="#00A1FF"/>
<stop offset="0.2601" stop-color="#00BEFF"/>
<stop offset="0.5122" stop-color="#00D2FF"/>
<stop offset="0.7604" stop-color="#00DFFF"/>
<stop offset="1" stop-color="#00E3FF"/>
</linearGradient>
<linearGradient id="paint1_linear_1418_2868" x1="36.0347" y1="19.5513" x2="11.8378" y2="19.5513" gradientUnits="userSpaceOnUse">
<stop stop-color="#FFE000"/>
<stop offset="0.4087" stop-color="#FFBD00"/>
<stop offset="0.7754" stop-color="#FFA500"/>
<stop offset="1" stop-color="#FF9C00"/>
</linearGradient>
<linearGradient id="paint2_linear_1418_2868" x1="27.0273" y1="21.8461" x2="4.26904" y2="44.6044" gradientUnits="userSpaceOnUse">
<stop stop-color="#FF3A44"/>
<stop offset="1" stop-color="#C31162"/>
</linearGradient>
<linearGradient id="paint3_linear_1418_2868" x1="9.49764" y1="-0.273883" x2="19.6602" y2="9.88862" gradientUnits="userSpaceOnUse">
<stop stop-color="#32A071"/>
<stop offset="0.0685" stop-color="#2DA771"/>
<stop offset="0.4762" stop-color="#15CF74"/>
<stop offset="0.8009" stop-color="#06E775"/>
<stop offset="1" stop-color="#00F076"/>
</linearGradient>
</defs>
</svg>
