<svg width="140" height="40" viewBox="0 0 140 40" fill="none" xmlns="http://www.w3.org/2000/svg">
<rect width="140" height="40" rx="4" fill="#101828"/>
<path fill-rule="evenodd" clip-rule="evenodd" d="M28.2813 6.68506H16.4338C10.8605 6.68506 8.80811 8.6786 8.80811 14.1528V25.755C8.80811 31.2128 10.8439 33.2228 16.4338 33.2228H28.2813C33.8545 33.2228 35.907 31.2291 35.907 25.755V14.1528C35.8902 8.6786 33.8545 6.68506 28.2813 6.68506Z" fill="#CE0E2D"/>
<path d="M14.1815 19.9535H14.8991V23.4178H14.1815V22.0125H12.563V23.4178H11.8455V19.9535H12.563V21.3589H14.1815V19.9535ZM18.2196 21.9308C18.2196 22.4864 17.936 22.7969 17.4187 22.7969C16.9014 22.7969 16.6011 22.4864 16.6011 21.9145V19.9535H15.8835V21.9308C15.8835 22.9113 16.4342 23.4668 17.402 23.4668C18.3698 23.4668 18.9372 22.8949 18.9372 21.8981V19.9373H18.2196V21.9308ZM26.5294 22.3393L25.7284 19.9535H25.1444L24.3435 22.3393L23.5592 19.9535H22.7917L24.0265 23.4178H24.6272L25.4281 21.1464L26.229 23.4178H26.8297L28.0646 19.9535H27.3136L26.5294 22.3393ZM29.3326 21.9308H30.6342V21.2935H29.3326V20.5908H31.2349V19.9535H28.6319V23.4178H31.3017V22.7805H29.3326V21.9308ZM32.1693 23.4178H32.8702V19.9535H32.1693V23.4178ZM20.3558 22.6988L20.0387 23.4178H19.3045L20.8564 19.9535H21.4905L23.0423 23.4178H22.2915L21.9744 22.6988H20.3558ZM20.6228 22.0615H21.7074L21.1568 20.8196L20.6228 22.0615Z" fill="white"/>
<path d="M22.3584 15.5421C19.8721 15.5421 17.853 13.5649 17.853 11.1301H18.4872C18.4872 13.2218 20.2225 14.9212 22.3584 14.9212C24.4942 14.9212 26.2296 13.2218 26.2296 11.1301H26.8637C26.8637 13.5485 24.8446 15.5421 22.3584 15.5421Z" fill="white"/>
<path d="M44.2572 12.8806C43.8127 12.6461 43.4833 12.302 43.2528 11.8799C43.0222 11.4577 42.907 10.9417 42.907 10.3789C42.907 9.78462 43.0222 9.25301 43.2693 8.79956C43.5162 8.34612 43.8785 8.00213 44.3395 7.75196C44.8006 7.50179 45.344 7.39233 45.9862 7.39233C46.5955 7.39233 47.106 7.51742 47.5506 7.75196C47.9787 7.98651 48.3245 8.31489 48.555 8.75263C48.7856 9.17485 48.9008 9.67522 48.9008 10.2381C48.9008 10.8479 48.769 11.3795 48.5221 11.833C48.2751 12.2864 47.9128 12.6304 47.4517 12.8806C46.9907 13.1308 46.4473 13.2403 45.8216 13.2403C45.2123 13.2403 44.7018 13.1308 44.2572 12.8806ZM46.9413 12.1926C47.2377 12.005 47.4517 11.7548 47.5835 11.4265C47.7317 11.0981 47.7976 10.7384 47.7976 10.3163C47.7976 9.90971 47.7317 9.55013 47.6 9.22178C47.4682 8.89343 47.2706 8.64324 46.9907 8.4556C46.7107 8.26795 46.3485 8.17409 45.9204 8.17409C45.5087 8.17409 45.1465 8.26795 44.85 8.4556C44.5537 8.64324 44.3395 8.90904 44.1914 9.22178C44.0432 9.55013 43.9773 9.8941 43.9773 10.285C43.9773 10.6915 44.0432 11.0668 44.1914 11.3951C44.3231 11.7235 44.5372 11.9737 44.8171 12.1613C45.0971 12.349 45.4593 12.4428 45.871 12.4428C46.2991 12.4585 46.6449 12.3802 46.9413 12.1926Z" fill="white"/>
<path d="M50.9923 8.29844H49.1316L49.2305 7.48535H53.874L53.7752 8.29844H52.0133V13.1613H50.9758V8.29844H50.9923Z" fill="white"/>
<path d="M59.439 13.1613H58.2699L56.4915 10.6595H55.7834V13.1613H54.7461V7.48542H55.7834V9.83081H56.3268L57.5618 8.1265C57.7429 7.87631 57.9241 7.68868 58.1052 7.57923C58.2863 7.46977 58.5169 7.40723 58.7968 7.40723C59.0273 7.40723 59.2414 7.4385 59.4225 7.51668L59.2085 8.28283C59.0933 8.23598 58.9944 8.22028 58.8791 8.22028C58.7639 8.22028 58.6486 8.2516 58.5663 8.31415C58.484 8.37669 58.3851 8.47047 58.3028 8.59557L57.1996 10.081L59.439 13.1613Z" fill="white"/>
<path d="M60.23 7.48561H61.8437C62.6012 7.48561 63.1775 7.62634 63.5892 7.92343C64.0008 8.22054 64.1985 8.64267 64.1985 9.18999C64.1985 9.56519 64.1161 9.89362 63.935 10.175C63.7538 10.4565 63.5069 10.6754 63.1775 10.8161C62.8481 10.9725 62.4859 11.035 62.0578 11.035C61.8273 11.035 61.5638 11.0038 61.2674 10.9568V13.1459H60.23V7.4856V7.48561ZM62.8317 10.0187C63.0458 9.83109 63.161 9.5652 63.161 9.22124C63.161 8.87727 63.0458 8.61146 62.8317 8.47075C62.6012 8.31434 62.2719 8.23618 61.8437 8.23618H61.2839V10.2532C61.5473 10.3002 61.7449 10.3158 61.8767 10.3158C62.2884 10.3002 62.6012 10.2063 62.8317 10.0187Z" fill="white"/>
<path d="M66.1745 12.8806C65.7298 12.6461 65.4006 12.302 65.17 11.8799C64.9395 11.4577 64.8242 10.9417 64.8242 10.3789C64.8242 9.78462 64.9395 9.25301 65.1864 8.79956C65.4335 8.34612 65.7957 8.00213 66.2568 7.75196C66.7179 7.50179 67.2612 7.39233 67.9034 7.39233C68.5126 7.39233 69.0231 7.51742 69.4677 7.75196C69.8959 7.98651 70.2416 8.31489 70.4721 8.75263C70.7027 9.17485 70.818 9.67522 70.818 10.2381C70.818 10.8479 70.6863 11.3795 70.4392 11.833C70.1922 12.2864 69.8299 12.6304 69.3689 12.8806C68.9079 13.1308 68.3645 13.2403 67.7387 13.2403C67.1459 13.2403 66.619 13.1308 66.1745 12.8806ZM68.8585 12.1926C69.1548 12.005 69.369 11.7548 69.5007 11.4265C69.6488 11.0981 69.7147 10.7384 69.7147 10.3163C69.7147 9.90971 69.6488 9.55013 69.5171 9.22178C69.3854 8.90904 69.1878 8.64324 68.9079 8.4556C68.628 8.26795 68.2657 8.17409 67.8375 8.17409C67.4259 8.17409 67.0636 8.26795 66.7673 8.4556C66.4708 8.64324 66.2568 8.90904 66.1086 9.22178C65.9603 9.55013 65.8945 9.8941 65.8945 10.285C65.8945 10.6915 65.9603 11.0668 66.1086 11.3951C66.2403 11.7235 66.4544 11.9737 66.7343 12.1613C67.0142 12.349 67.3765 12.4428 67.7881 12.4428C68.2163 12.4585 68.5785 12.3802 68.8585 12.1926Z" fill="white"/>
<path d="M76.0705 13.1614V10.0342C76.0705 9.64329 76.087 9.18984 76.1199 8.68947L73.1065 13.1614H71.9539V7.48545H72.909V10.7377C72.909 11.0974 72.8925 11.4727 72.876 11.8948L75.8399 7.48545H77.0255V13.177H76.0705V13.1614ZM73.7323 6.98507C73.5182 6.87562 73.3535 6.73489 73.2382 6.5629C73.123 6.3909 73.0571 6.20327 73.0242 6H73.7652C73.8475 6.42217 74.111 6.62544 74.5391 6.62544C74.9837 6.62544 75.2307 6.42217 75.3131 6H76.0541C76.0211 6.20327 75.9552 6.3909 75.8399 6.5629C75.7247 6.73489 75.56 6.87562 75.346 6.98507C75.1319 7.09453 74.852 7.15707 74.5391 7.15707C74.2263 7.14143 73.9628 7.09453 73.7323 6.98507Z" fill="white"/>
<path d="M79.7591 8.29844H77.9148L78.0136 7.48535H82.6737L82.5749 8.29844H80.8129V13.1613H79.7755V8.29844H79.7591Z" fill="white"/>
<path d="M83.53 7.48562H87.0535L86.9711 8.2831H84.5839V9.84669H86.8396V10.5972H84.5839V12.3484H87.1035L87.0212 13.1615H83.5465V7.4856H83.53V7.48562Z" fill="white"/>
<path d="M94.2994 10.3471C94.5132 10.4721 94.6779 10.6285 94.8094 10.8317C94.941 11.035 94.991 11.2696 94.991 11.551C94.991 11.8637 94.9087 12.1452 94.7441 12.3953C94.5786 12.6299 94.3316 12.8332 94.0193 12.9583C93.69 13.099 93.3107 13.1615 92.8668 13.1615H90.9072V7.4856H92.7845C93.4261 7.4856 93.8878 7.59505 94.2171 7.82959C94.5294 8.06414 94.694 8.37685 94.694 8.78333C94.694 9.12738 94.5956 9.4088 94.3978 9.62768C94.2001 9.84663 93.937 10.0186 93.6077 10.1124C93.8377 10.1437 94.0847 10.2375 94.2994 10.347V10.3471ZM91.9112 9.79976H92.5537C92.7675 9.79976 92.9653 9.75283 93.1299 9.67467C93.2945 9.5965 93.4261 9.48702 93.5084 9.34631C93.5907 9.2056 93.6408 9.06489 93.6408 8.89287C93.6408 8.65829 93.5585 8.48635 93.3769 8.37687C93.1961 8.26739 92.9491 8.20485 92.6029 8.20485H91.9112V9.79976ZM93.6408 12.1921C93.8547 12.0358 93.9531 11.8012 93.9531 11.5041C93.9531 11.1914 93.8377 10.9412 93.6077 10.7848C93.3769 10.6285 93.0315 10.5346 92.6029 10.5346H91.9112V12.4423H92.6852C93.1138 12.4423 93.4261 12.3484 93.6408 12.1921Z" fill="white"/>
<path d="M51.2001 26.93H46.2777L45.0763 30.1491H42.907L47.7293 18.1064H49.7818L54.721 30.1491H52.4516L51.2001 26.93ZM46.8951 25.296H50.566L49.2479 21.8481C49.0643 21.3742 48.8807 20.8513 48.7139 20.263C48.547 20.7696 48.3801 21.2925 48.1966 21.8317L46.8951 25.296Z" fill="white"/>
<path d="M55.6881 23.3843C55.6881 22.7143 55.6714 21.9953 55.6213 21.1946H57.5903C57.6571 21.5705 57.7071 21.9464 57.7405 22.3385C58.5582 21.4725 59.4926 21.0312 60.5438 21.0312C61.1612 21.0312 61.7285 21.1783 62.2458 21.4888C62.7631 21.7829 63.1802 22.2731 63.5139 22.9268C63.831 23.5804 63.9978 24.4138 63.9978 25.4106C63.9978 26.4564 63.8143 27.3551 63.4472 28.0904C63.0801 28.8258 62.5795 29.3977 61.9121 29.7735C61.2613 30.1494 60.4937 30.3455 59.6428 30.3455C59.0254 30.3455 58.408 30.2474 57.8073 30.035V33.728L55.7048 33.9078V23.3842H55.6881V23.3843ZM61.1946 27.976C61.6284 27.4205 61.8286 26.5871 61.8286 25.5086C61.8286 24.5118 61.6451 23.7765 61.2946 23.3189C60.9443 22.8614 60.477 22.649 59.8763 22.649C59.4758 22.649 59.0921 22.747 58.7417 22.9268C58.3912 23.1229 58.0743 23.368 57.7572 23.6784V28.4826C57.9741 28.5806 58.2078 28.6624 58.4914 28.7277C58.7751 28.7931 59.042 28.8094 59.309 28.8094C60.1433 28.8094 60.7774 28.5317 61.1946 27.976Z" fill="white"/>
<path d="M65.3165 23.3843C65.3165 22.7143 65.2997 21.9953 65.2498 21.1946H67.2187C67.2855 21.5705 67.3355 21.9464 67.3689 22.3385C68.1865 21.4725 69.1209 21.0312 70.1722 21.0312C70.7896 21.0312 71.3569 21.1783 71.8742 21.4888C72.3914 21.7829 72.8086 22.2731 73.1423 22.9268C73.4593 23.5804 73.6262 24.4138 73.6262 25.4106C73.6262 26.4564 73.4427 27.3551 73.0756 28.0904C72.7085 28.8258 72.2079 29.3977 71.5404 29.7735C70.8896 30.1494 70.1221 30.3455 69.2711 30.3455C68.6537 30.3455 68.0363 30.2474 67.4356 30.035V33.728L65.3332 33.9078V23.3842H65.3165V23.3843ZM70.8396 27.976C71.2735 27.4205 71.4737 26.5871 71.4737 25.5086C71.4737 24.5118 71.2901 23.7765 70.9397 23.3189C70.5893 22.8614 70.1221 22.649 69.5214 22.649C69.1209 22.649 68.7371 22.747 68.3867 22.9268C68.0363 23.1229 67.7193 23.368 67.4022 23.6784V28.4826C67.6192 28.5806 67.8527 28.6624 68.1364 28.7277C68.4201 28.7931 68.6871 28.8094 68.954 28.8094C69.7884 28.8094 70.4058 28.5317 70.8396 27.976Z" fill="white"/>
<path d="M77.5644 29.594C76.6632 29.1038 75.9625 28.4012 75.4786 27.4861C74.9947 26.5711 74.7444 25.4926 74.7444 24.2506C74.7444 22.8943 75.028 21.7505 75.5786 20.8028C76.146 19.855 76.8969 19.1524 77.8647 18.6785C78.8325 18.2046 79.9171 17.9595 81.1185 17.9595C81.8194 17.9595 82.5035 18.0412 83.1375 18.1883C83.7884 18.3353 84.3723 18.5478 84.9394 18.8092L84.4056 20.3942C83.2877 19.8714 82.2198 19.6099 81.2187 19.6099C80.3676 19.6099 79.6167 19.7896 78.9659 20.1491C78.3152 20.5086 77.8314 21.0315 77.4642 21.7178C77.1138 22.4041 76.9302 23.2538 76.9302 24.2343C76.9302 25.1004 77.0637 25.8521 77.3474 26.522C77.6311 27.1919 78.0483 27.7149 78.649 28.1071C79.2329 28.4992 79.9838 28.6953 80.8849 28.6953C81.2854 28.6953 81.7026 28.6626 82.103 28.5973C82.5035 28.5319 82.8872 28.4339 83.2544 28.3031V25.8684H80.4177V24.2506H85.3069V29.3163C84.6059 29.6431 83.8718 29.8882 83.0875 30.0516C82.3199 30.2314 81.5524 30.313 80.7848 30.313C79.55 30.3294 78.4821 30.0843 77.5644 29.594Z" fill="white"/>
<path d="M92.8515 30.1661C92.7845 29.823 92.7344 29.4145 92.7013 28.9733C92.3839 29.3491 91.9502 29.676 91.4334 29.9374C90.9157 30.1988 90.3318 30.3296 89.6809 30.3296C89.1471 30.3296 88.6794 30.2315 88.2458 30.0191C87.8121 29.823 87.4616 29.5125 87.2112 29.104C86.9609 28.6955 86.8276 28.2053 86.8276 27.617C86.8276 26.7509 87.1442 26.0483 87.7951 25.5417C88.4291 25.0189 89.4976 24.7574 90.9989 24.7574C91.5666 24.7574 92.1174 24.7901 92.6674 24.8718V24.692C92.6674 23.8913 92.501 23.3358 92.1505 23.0089C91.8 22.6821 91.3163 22.5187 90.6653 22.5187C90.2147 22.5187 89.7479 22.5841 89.2302 22.7148C88.7134 22.8455 88.2789 22.9926 87.8953 23.1723L87.5617 21.669C87.9292 21.5056 88.4291 21.3421 89.0469 21.2114C89.6639 21.0808 90.2987 20.999 90.9827 20.999C91.7669 20.999 92.451 21.1134 93.0017 21.3585C93.5525 21.5873 93.9862 21.9958 94.3028 22.5677C94.6202 23.1396 94.7704 23.9077 94.7704 24.8881V28.4504C94.7704 28.8263 94.7865 29.3818 94.8366 30.1335H92.8515V30.1661ZM91.5997 28.4994C92.0334 28.287 92.4009 28.0418 92.6674 27.7314V26.0647C92.1005 25.9992 91.6328 25.9666 91.2662 25.9666C90.398 25.9666 89.798 26.0973 89.4636 26.3751C89.1301 26.6529 88.9637 27.0124 88.9637 27.4863C88.9637 27.9275 89.08 28.2543 89.3304 28.4668C89.5638 28.6792 89.8981 28.7935 90.3148 28.7935C90.7324 28.8099 91.1661 28.6955 91.5997 28.4994Z" fill="white"/>
<path d="M96.5857 28.0087V17.4037L98.6717 17.2402V27.6492C98.6717 28.025 98.7379 28.3029 98.872 28.4662C99.0053 28.6296 99.2225 28.7113 99.506 28.7113C99.6392 28.7113 99.8225 28.6787 100.057 28.6133L100.307 30.084C100.107 30.1657 99.8726 30.2311 99.573 30.2637C99.2887 30.3127 99.0222 30.3291 98.7549 30.3291C97.3198 30.3291 96.5857 29.561 96.5857 28.0087Z" fill="white"/>
<path d="M101.805 28.0087V17.4037L103.891 17.2402V27.6492C103.891 28.025 103.958 28.3029 104.092 28.4662C104.225 28.6296 104.442 28.7113 104.725 28.7113C104.859 28.7113 105.043 28.6787 105.276 28.6133L105.527 30.084C105.326 30.1657 105.092 30.2311 104.793 30.2637C104.508 30.3127 104.242 30.3291 103.974 30.3291C102.539 30.3291 101.805 29.561 101.805 28.0087Z" fill="white"/>
<path d="M114.221 25.9337H108.231C108.331 27.8129 109.249 28.7444 110.967 28.7444C111.401 28.7444 111.836 28.6953 112.285 28.5973C112.736 28.4992 113.17 28.3521 113.587 28.1887L114.038 29.594C113.02 30.0842 111.869 30.3293 110.584 30.3293C109.616 30.3293 108.782 30.1496 108.114 29.7901C107.447 29.4306 106.946 28.9077 106.613 28.2378C106.278 27.5677 106.112 26.7507 106.112 25.7866C106.112 24.7899 106.295 23.9402 106.646 23.2212C106.996 22.5022 107.497 21.9629 108.131 21.5871C108.765 21.2113 109.499 21.0151 110.333 21.0151C111.201 21.0151 111.919 21.2113 112.503 21.6034C113.086 21.9956 113.52 22.5349 113.787 23.1885C114.071 23.8421 114.205 24.5774 114.205 25.3781V25.9337H114.221ZM112.169 24.6264C112.135 23.9074 111.952 23.3683 111.618 23.0251C111.285 22.6656 110.851 22.4858 110.3 22.4858C109.766 22.4858 109.332 22.6656 108.965 23.0251C108.615 23.3845 108.381 23.9238 108.281 24.6264H112.169Z" fill="white"/>
<path d="M115.91 23.4497C115.91 22.9594 115.893 22.2078 115.843 21.1946H117.812C117.846 21.4398 117.879 21.7502 117.912 22.0934C117.946 22.4366 117.962 22.7143 117.979 22.9431C118.23 22.551 118.463 22.2241 118.696 21.9464C118.93 21.6685 119.214 21.4561 119.514 21.2927C119.831 21.1293 120.181 21.0312 120.582 21.0312C120.899 21.0312 121.183 21.0639 121.416 21.1293L121.15 22.9105C120.949 22.845 120.716 22.8124 120.466 22.8124C119.965 22.8124 119.547 22.9431 119.181 23.1882C118.813 23.4333 118.413 23.8419 117.996 24.4138V30.1821H115.91V23.4497Z" fill="white"/>
<path d="M122.665 33.8264C122.365 33.7775 122.115 33.7121 121.914 33.6467L122.299 32.1433C122.432 32.176 122.615 32.2251 122.833 32.2577C123.049 32.2904 123.249 32.3068 123.45 32.3068C124.384 32.3068 125.068 31.7185 125.536 30.5583L125.669 30.2315L122.299 21.1787H124.551L126.253 26.228C126.537 27.0941 126.703 27.7477 126.787 28.2216C126.954 27.568 127.137 26.9307 127.354 26.277L129.073 21.1787H131.192L127.821 30.2646C127.505 31.1307 127.154 31.8169 126.787 32.3399C126.42 32.8627 125.986 33.2549 125.486 33.5164C124.985 33.7779 124.384 33.8923 123.667 33.8923C123.299 33.9086 122.983 33.8923 122.665 33.8268V33.8264Z" fill="white"/>
</svg>
